# xmcd
#
# Track frame offsets:
#	150
#	27417
#	52322
#	74955
#	97635
#	120012
#	140497
#	167717
#	189137
#	223570
#
# Disc length: 3323 seconds
#
# Revision: 1
# Processed by: cddbd v1.5.1PL2 Copyright (c) Steve Scherf et al.
# Submitted via: audiograbber 1.83.01
#
DISCID=8a0cf90a
DTITLE=Kevin Russell Craig Erickson TJ Parker - S.F. Blues Guitar Summit-Vol. 1
DYEAR=1993
DGENRE=Blues
TTITLE0=Roadhouse Stomp!
TTITLE1=She's Dangerous
TTITLE2=Down The Line
TTITLE3=Train Tonight
TTITLE4=Love You Too Much
TTITLE5=Seeds Of Soul
TTITLE6=Too Many Miles
TTITLE7=Bottom Line
TTITLE8=Better Days
TTITLE9=Train Pumpin'
EXTD=
EXTT0=
EXTT1=
EXTT2=
EXTT3=
EXTT4=
EXTT5=
EXTT6=
EXTT7=
EXTT8=
EXTT9=
PLAYORDER=
